PathFileType	4	(X/Y/Z)	E:\Marcel_BSc\Ayumi_22_01_2025\22-01-2025\sumo_dl_2.trc
DataRate	CameraRate	NumFrames	NumMarkers	Units	OrigDataRate	OrigDataStartFrame	OrigNumFrames
200.0	200.0	4	47	mm	200.0	861	2294	
Frame#	Time	LBHD			FHD			RBHD			RBAR			LBAR			RSACR			LSACR			USACR			C7			CLAV			T10			RSHO			LSHO			LTHI1			LTHI3			LTHI2			LTIB1			LTIB2			LTIB3			LMMAL			LLMAL			LHEE			LMT1			LMT5			LMT3			RTHI1			RTHI2			RTHI3			RTIB1			RTIB3			RTIB2			RLMAL			RMMAL			RHEE			RMT5			RMT1			RMT3			LDUPA			LMUPA			LUUPA			LRAD			RUL			RRAD			RUFIN			RMUPA			RDUPA			RUUPA			
		X1	Y1	Z1	X2	Y2	Z2	X3	Y3	Z3	X4	Y4	Z4	X5	Y5	Z5	X6	Y6	Z6	X7	Y7	Z7	X8	Y8	Z8	X9	Y9	Z9	X10	Y10	Z10	X11	Y11	Z11	X12	Y12	Z12	X13	Y13	Z13	X14	Y14	Z14	X15	Y15	Z15	X16	Y16	Z16	X17	Y17	Z17	X18	Y18	Z18	X19	Y19	Z19	X20	Y20	Z20	X21	Y21	Z21	X22	Y22	Z22	X23	Y23	Z23	X24	Y24	Z24	X25	Y25	Z25	X26	Y26	Z26	X27	Y27	Z27	X28	Y28	Z28	X29	Y29	Z29	X30	Y30	Z30	X31	Y31	Z31	X32	Y32	Z32	X33	Y33	Z33	X34	Y34	Z34	X35	Y35	Z35	X36	Y36	Z36	X37	Y37	Z37	X38	Y38	Z38	X39	Y39	Z39	X40	Y40	Z40	X41	Y41	Z41	X42	Y42	Z42	X43	Y43	Z43	X44	Y44	Z44	X45	Y45	Z45	X46	Y46	Z46	X47	Y47	Z47	
861	4.295	-72.703545	1043.4275	-921.53296	-85.449173	1047.3438	-985.3429	-30.387466	1024.7526	-1049.2281	215.26392	235.31436	-2037.1425	248.78529	247.79808	183.0127	529.3111	700.12903	-1013.3247	535.12189	707.90613	-942.32977	522.8385	713.09375	-977.21106	138.7753	950.92902	-949.98676	125.34107	793.31036	-958.38086	396.42975	845.23444	-978.87659	93.166458	810.35999	-1103.6753	116.03006	811.22009	-792.7937	402.81467	510.52545	-639.25952	362.13937	466.22198	-612.10541	345.56259	513.71875	-605.12396	301.03006	242.93672	-492.79346	343.06491	241.04913	-520.69073	323.57086	182.20349	-499.4913	290.03915	71.126923	-552.64221	346.56406	76.891335	-503.71475	355.76678	36.646744	-559.47455	205.86765	44.252235	-434.41052	273.34982	27.653435	-388.97513	227.0246	39.704018	-407.18088	386.77417	487.75665	-1272.6559	332.09058	493.83276	-1309.509	345.24954	444.44217	-1301.6206	291.96634	272.26428	-1416.8365	314.45248	213.03824	-1409.5332	333.36108	271.52441	-1387.604	344.66052	76.219307	-1406.6372	270.93915	63.741043	-1373.8641	354.65897	32.111961	-1350.7119	283.70203	29.699707	-1526.0341	223.03262	34.545803	-1498.2645	246.56528	34.881779	-1519.7922	258.00497	642.16888	-730.93408	208.79752	634.92731	-731.36005	199.19408	695.81195	-734.61658	253.91266	334.24799	-649.33844	184.92873	313.5321	-1216.6848	184.8968	308.22498	-1154.4329	183.73306	232.30519	-1154.4092	160.56038	715.57135	-1178.6343	176.3476	655.56573	-1187.7543	207.02069	728.56671	-1190.5103
862	4.3	-72.136383	1044.1931	-921.78833	-84.803337	1048.1355	-985.65332	-29.755774	1025.3062	-1049.5026	214.97366	235.37057	-2037.1639	248.79852	247.74686	182.98021	529.0802	700.04846	-1013.1557	534.91278	707.71899	-942.19525	522.64203	713.01147	-977.06616	138.75452	951.01825	-950.26685	125.17026	793.37646	-958.68433	396.3186	845.2569	-978.82233	93.158562	810.47455	-1104.0309	115.69714	811.30884	-793.11664	401.74634	510.27942	-639.36218	361.0694	466.06088	-612.35333	344.35495	513.53046	-605.40936	300.51028	242.91327	-492.97083	342.47363	241.14706	-520.78662	323.09286	182.28532	-499.55679	290.07428	71.097313	-552.61584	346.5448	77.054153	-503.68054	355.82242	36.738113	-559.39551	205.87111	44.245232	-434.37915	273.32959	27.650026	-388.9176	227.05392	39.684032	-407.20023	386.56046	487.7569	-1272.9551	331.95059	493.63242	-1309.5138	345.02014	444.25806	-1301.6241	291.03781	272.99319	-1416.1594	314.24832	212.85611	-1409.5701	333.77457	271.66666	-1387.7638	344.55469	76.186569	-1406.5276	270.77579	63.768497	-1373.7904	354.57336	32.132233	-1350.6776	283.65381	29.67577	-1526.0341	223.00325	34.544624	-1498.2609	246.49538	34.854897	-1519.8145	257.7507	642.16266	-731.09802	208.44751	634.8808	-731.53387	198.97607	695.82428	-734.79248	253.73381	334.24622	-649.48004	184.58762	313.67789	-1216.6525	184.67789	308.2486	-1154.4547	183.47818	232.39169	-1154.3693	160.5923	715.59149	-1178.8452	176.37497	655.5155	-1187.9958	207.11832	728.4541	-1190.7507
863	4.305	-71.542236	1044.8318	-922.12805	-84.275986	1049.2371	-985.82172	-29.154388	1025.7344	-1049.8638	214.72208	235.34367	-2037.1124	248.85759	247.7326	182.95146	528.88214	699.97607	-1012.9691	534.70996	707.5531	-942.04175	522.40057	712.95996	-976.8844	138.39368	950.99976	-950.82074	125.00657	793.40265	-958.99365	396.22635	845.26892	-978.79767	93.184227	810.60284	-1104.3127	115.25036	811.5647	-793.48157	400.69684	510.22446	-639.44385	359.7684	465.79541	-612.59766	343.22357	513.37488	-605.62158	300.04413	242.99338	-493.05353	342.02216	241.35294	-520.75073	323.01471	182.31509	-499.47531	290.27591	71.153191	-552.55273	346.65298	77.160576	-503.54178	356.04437	36.832027	-559.20312	205.9617	44.234734	-434.29282	273.30188	27.985937	-388.38651	226.69467	39.791138	-406.09421	386.64597	487.33566	-1273.2393	332.21027	492.987	-1309.4877	344.86646	444.00214	-1301.6683	290.69135	272.83966	-1416.2168	313.93503	212.73045	-1409.6145	333.49924	271.64786	-1387.9021	344.35147	76.194778	-1406.4257	270.59378	63.873573	-1373.7261	354.51401	32.125473	-1350.6444	283.57211	29.697203	-1526.0117	222.89671	34.519863	-1498.2743	246.41054	34.846821	-1519.8186	257.39871	642.1106	-731.27179	208.15591	634.89069	-731.70172	198.70616	695.8222	-734.97662	253.21445	334.24255	-649.58063	184.35513	313.7984	-1216.6523	184.42113	308.29938	-1154.4666	183.17241	232.42696	-1154.3901	160.63225	715.61658	-1179.0929	176.37398	655.54846	-1188.215	207.19337	728.46637	-1190.924
864	4.31	-70.972679	1045.4747	-922.44745	-83.592697	1049.8396	-986.20258	-28.670355	1026.3911	-1050.103	214.60623	235.30547	-2037.1437	248.8945	247.74023	182.93932	528.70074	699.86499	-1012.8022	534.46191	707.44604	-941.85278	522.16852	712.91266	-976.72076	138.35831	950.97937	-951.02869	124.88745	793.45587	-959.27441	396.05432	845.37415	-978.76709	93.233124	810.59399	-1104.519	114.97781	811.52881	-793.7735	399.52158	510.11145	-639.46912	358.62073	465.66156	-612.67218	342.06998	513.19843	-605.7265	299.72852	243.18219	-493.15979	341.77167	241.63194	-520.77698	322.94153	182.51483	-499.39398	290.48386	71.215828	-552.38348	346.71344	77.41478	-503.29547	356.31879	37.022415	-558.86688	206.05272	44.215042	-434.22894	273.34048	27.742943	-388.5676	227.12343	39.68103	-407.07468	386.73108	486.95554	-1273.5592	332.01337	492.88004	-1309.4703	344.6239	443.9678	-1301.5826	290.38089	272.729	-1416.2433	313.64603	212.63412	-1409.6006	332.56589	271.38559	-1387.9768	344.09103	76.274414	-1406.3691	270.4541	63.507751	-1373.5917	354.41864	32.16486	-1350.5968	283.4993	29.749266	-1525.9657	222.81075	34.510021	-1498.2542	246.27728	34.819351	-1519.8335	257.03961	642.0307	-731.42206	207.85225	634.86017	-731.87823	198.37434	695.82874	-735.16077	252.59453	334.18616	-649.68994	184.13428	313.70587	-1216.7362	184.01454	308.28952	-1154.5146	182.8737	232.51511	-1154.3314	160.6924	715.67786	-1179.3385	176.37711	655.59119	-1188.4423	207.29953	728.45959	-1191.0862
